<?xml version="1.0" encoding="UTF-8"?>
<svg version="1.1" viewBox="0 0 1280 1280" width="320" height="320" xmlns="http://www.w3.org/2000/svg">
<path transform="translate(438,223)" d="m0 0h30l31 3 22 5 27 9 20 9 26 13 24 11 10 3 7 1h17l10-4 6-4 4-5 3-10 1-7v-10l5-2h9l2 4-1 250-1 1h-11l-3-3-2-32-5-32-5-20-7-21-8-18-10-18-8-12-12-16-11-12-13-12-17-13-14-9-17-8-20-7-17-5-18-3-17-1h-15l-25 2-25 6-12 5-15 9-13 11-10 14-8 17-4 13-2 11-1 17 2 26 4 20 7 21 8 16 8 14 10 14 12 14 9 10 13 13 11 9 13 11 19 14 18 13 22 15 21 14 19 12 18 12 22 15 14 10 21 16 13 10 13 11 10 9 29 29 11 14 10 14 10 18 9 19 6 18 4 19 3 23v31l-3 23-5 22-7 21-10 21-8 12-9 11-11 12-16 13-18 12-16 8-18 7-26 8-26 5-25 3-13 1h-49l-30-3-24-4-25-7-32-12-29-13-24-8-10-2-15-1-21 3-12 6-6 5-5 9-2 13-1 1h-12l-1-1v-323h13l1 1 1 30 3 38 5 32 9 38 9 26 9 20 8 16 13 20 10 13 9 10 14 14 14 11 14 10 12 7 18 8 17 6 26 6 24 3 13 1h29l31-5 24-7 16-7 14-9 13-11 9-11 10-17 6-16 4-17 2-14v-20l-4-24-7-21-11-21-10-14-10-13-12-13-24-24-11-9-14-11-21-16-19-14-40-28-12-8-20-14-36-26-21-16-14-11-13-11-11-9-12-11-17-17-7-8-13-16-12-18-8-14-8-17-8-24-3-16-1-9v-32l3-19 6-21 7-17 12-21 13-16 16-16 17-13 15-10 19-10 25-10 25-7 30-5z" fill="#FEFEFE"/>
<path transform="translate(732,256)" d="m0 0 10 1 42 10 28 10 24 11 22 11 21 13 19 14 14 11 10 9 8 7 20 20v2h2l7 8 13 16 10 14 14 21 12 21 14 29 9 24 9 28 6 26 5 30 4 43v33l-3 31-5 30-7 29-7 22-7 19-9 21-10 20-11 19-16 24-11 14-11 13-9 11-7 7-7 8-14 13-14 11-18 14-26 17-16 9-22 11-27 11-29 9-25 6-20 3-34 3h-25l-3-2 16-9 6-3 44-5 19-5 20-7 19-9 18-11 13-11 11-9 14-15 11-14 7-10 12-19 11-21 11-26 12-36 9-36 7-42 4-36 2-35v-30l-3-54-4-38-6-36-9-38-9-29-9-24-10-23-12-22-11-18-10-14-9-11-12-13-14-13-17-13-19-12-25-12-17-6z" fill="#FEFEFE"/>
<path transform="translate(299,611)" d="m0 0 6 4 16 13 12 9 17 13 19 14 18 13 17 12 14 10 10 8 1 3 3 29 6 35 5 22 5 19 7 22 8 22 10 23 10 20 14 23 12 17 11 13 7 7v2l-27 4-14 1h-23l-9-2-11-7-15-13-14-13-7-8-11-12-9-11-12-15-10-15-15-25-12-23-13-31-11-33-7-29-5-28-3-31-1-36v-25z" fill="#FEFEFE"/>
<path transform="translate(506,293)" d="m0 0 8 1 21 8 9 4-2 4-10 9-18 18-10 13-13 18-9 15-12 23-14 32-11 31-4-2-12-12-8-10-11-14-12-21-6-14-2-5v-6l10-10 7-8 22-22 11-9 18-14 20-14 18-10z" fill="#FEFEFE"/>
</svg>
