<svg width="512" height="512" viewBox="0 0 1280 1280" xmlns="http://www.w3.org/2000/svg">
  <!-- White background -->
  <rect width="1280" height="1280" fill="#FFFFFF"/>
  
  <!-- Black logo paths from OSSvg light theme -->
  <g transform="translate(478,221)">
    <path
      d="m0 0h43l24 3 23 5 26 9 22 10 19 10 26 12 6 2 20 2 12-2 10-6 5-8 3-15 1-10h13l1 1v246l-1 1h-13l-3-33-4-27-6-25-9-25-10-21-13-21-13-17-11-12-14-12-16-12-13-8-17-8-27-9-20-4-25-2-25 1-20 3-18 5-16 8-16 12-8 9-8 13-7 16-4 17-1 8v20l2 19 4 18 5 16 9 19 9 15 12 16 9 10 7 8 13 13 8 7 13 11 19 14 18 13 20 14 15 10 20 13 30 20 22 15 19 14 21 16 10 8 11 10 8 7 20 20 9 11 10 13 11 18 9 17 8 21 5 20 4 30v23l-3 25-5 23-7 20-10 21-10 15-12 14-7 7-17 13-15 10-21 10-27 9-25 6-27 4-21 2h-46l-37-4-21-4-23-7-27-10-29-13-24-8-18-3h-9l-15 2-10 4-9 6-6 9-2 7-1 8-1 1h-10l-2-1-1-20v-296l5-1 9 1 2 43 4 37 7 36 6 22 7 20 7 17 8 16 8 14 9 13 10 13 4 4v2h2l7 8 10 9 14 11 15 10 25 12 21 7 26 5 34 3h20l21-2 20-4 25-8 13-7 14-10 11-10 10-14 8-16 5-16 3-16 1-7v-20l-4-24-6-18-8-17-9-14-9-12-9-11-11-12-14-14-8-7-13-11-16-12-21-16-18-13-16-11-20-14-15-10-17-12-36-26-17-13-17-14-16-13-12-11-19-19-9-11-11-13-12-18-10-18-8-19-6-21-2-12-1-14v-16l2-20 5-21 8-20 10-18 9-13 9-10 5-6 8-7 16-13 19-12 16-8 16-7 22-7 22-5 22-3z"
      fill="#000000"
    />
  </g>
  <g transform="translate(786,258)">
    <path
      d="m0 0 18 4 25 7 19 7 16 7 21 10 18 10 21 14 21 16 13 11 15 14 9 9 7 8 12 14 14 19 8 12 10 16 10 18 12 25 10 27 8 26 7 31 4 28 3 35v34l-2 22-5 32-7 30-8 26-11 28-11 23-11 20-20 30-11 14-12 14-9 10-7 8-8 8-8 7-12 10-16 12-17 12-19 12-17 9-22 10-24 9-34 10-20 4-35 4h-13l1-3 14-9 4-3 25-4 26-8 21-9 16-9 14-10 14-12 15-15 11-14 7-10 9-14 10-18 12-26 12-34 7-26 5-22 6-36 3-26 2-25 1-22v-25l-3-52-3-31-5-33-6-29-8-30-9-27-12-29-11-22-12-20-11-16-9-11-14-15-14-13-16-12-18-11-26-13z"
      fill="#000000"
    />
  </g>
  <g transform="translate(348,618)">
    <path
      d="m0 0 4 2 15 12 12 9 21 16 17 12 36 26 19 13 4 4 3 16 6 35 8 34 9 29 8 21 8 19 10 19 10 18 8 12 9 12 2 5-17 2h-34l-20-2-12-3-8-6-9-9-7-8-13-15-11-14-10-14-15-24-14-27-9-20-10-27-8-28-6-29-4-28-1-12-1-25z"
      fill="#000000"
    />
  </g>
  <g transform="translate(535,301)">
    <path
      d="m0 0 14 3 29 9-1 4h-2l-2 4-9 8-9 11-10 13-14 21-12 22-13 29-8 22-4-2-9-9-11-14-7-10-8-14-5-12-4-12v-5l12-13 8-8 8-7 17-14 19-14 13-8z"
      fill="#000000"
    />
  </g>
</svg>
